<svg width="23" height="20" viewBox="0 0 28 25" fill="none" xmlns="http://www.w3.org/2000/svg">
<path d="M1.31265 2.74265C1.06347 2.00882 0.938875 1.64191 1.02956 1.4159C1.10832 1.21961 1.27687 1.07092 1.48467 1.0144C1.72395 0.949326 2.08462 1.10797 2.80597 1.42526L25.7604 11.522C26.4666 11.8326 26.8197 11.9879 26.9289 12.2037C27.0237 12.3911 27.0237 12.6111 26.9289 12.7985C26.8197 13.0143 26.4666 13.1696 25.7604 13.4803L2.81397 23.5735C2.09044 23.8917 1.72868 24.0509 1.48916 23.9855C1.28116 23.9288 1.11259 23.7797 1.03411 23.583C0.943731 23.3566 1.06967 22.9889 1.32154 22.2535L4.52761 12.8923C4.57074 12.7664 4.5923 12.7035 4.60092 12.639C4.60856 12.5818 4.60864 12.524 4.60114 12.4668C4.5927 12.4023 4.5713 12.3393 4.5285 12.2133L1.31265 2.74265Z" fill="#6297FF"/>
<path d="M12.1959 12.5011H4.64385M4.52761 12.8923L1.32154 22.2535C1.06967 22.9889 0.943731 23.3566 1.03411 23.583C1.11259 23.7797 1.28116 23.9288 1.48916 23.9855C1.72868 24.0509 2.09044 23.8917 2.81397 23.5735L25.7604 13.4803C26.4666 13.1696 26.8197 13.0143 26.9289 12.7985C27.0237 12.6111 27.0237 12.3911 26.9289 12.2037C26.8197 11.9879 26.4666 11.8326 25.7604 11.522L2.80597 1.42526C2.08462 1.10797 1.72395 0.949326 1.48467 1.0144C1.27687 1.07092 1.10832 1.21961 1.02956 1.4159C0.938875 1.64191 1.06347 2.00882 1.31265 2.74265L4.5285 12.2133C4.5713 12.3393 4.5927 12.4023 4.60114 12.4668C4.60864 12.524 4.60856 12.5818 4.60092 12.639C4.5923 12.7035 4.57074 12.7664 4.52761 12.8923Z" stroke="#242526" stroke-width="2" stroke-linecap="round" stroke-linejoin="round"/>
</svg>
